<?xml version="1.0" encoding="utf-8"?>
<?xml-stylesheet type="text/xsl" href="rss1.xsl"?>
<rss version="2.0" xmlns:atom="http://www.w3.org/2005/Atom" xmlns:content="http://purl.org/rss/1.0/modules/content/" xmlns:dc="http://purl.org/dc/elements/1.1/" xmlns:media="http://search.yahoo.com/mrss/">
<channel>
 <title>Getty</title>
 <link>http://www.gettyimg.com/</link>
 <atom:link href="http://www.gettyimg.com/" rel="self" type="application/rss+xml" />

 
                <item>
                <title><![CDATA[【MASTER &amp; MASTER RIP】MASTER - PESO PLUMA X ANITTA –  BELLAKEO (MasterRip Clean AVC 4K) – 2024]]></title>
                <link><![CDATA[https://sharemania.us/threads/peso-pluma-x-anitta-%E2%80%93-bellakeo-masterrip-clean-avc-4k-%E2%80%93-2024.236367/]]></link>
                <description><![CDATA[<article>
<blockquote class="messageText SelectQuoteContainer ugc baseHtml">
<div style="text-align: center"><span style="font-family: 'Times New Roman'"><img src="https://i.imgur.com/ik2q47B.jpg" class="bbCodeImage LbImage" alt="[​IMG]" data-url="https://i.imgur.com/ik2q47B.jpg" style=""> <br>
</span>​</div>
<div class="ToggleTriggerAnchor bbCodeSpoilerContainer">
<button type="button" class="button bbCodeSpoilerButton ToggleTrigger Tooltip JsOnly" data-target="> .SpoilerTarget"><span>Spoiler: <span class="SpoilerTitle">MediaInfo</span></span></button>
<div class="SpoilerTarget bbCodeSpoilerText"><span style="font-family: 'Times New Roman'">General<br>
Complete name : D:\Downloads\PESO PLUMA X ANITTA – BELLAKEO (MasterRip Clean AVC 4K) – 2024.mp4<br>
Format : MPEG-4<br>
Format profile : Base Media / Version 2<br>
Codec ID : mp42 (mp42/mp41)<br>
File size : 2.72 GiB<br>
Duration : 3 min 54 s<br>
Overall bit rate mode : Variable<br>
Overall bit rate : 99.7 Mb/s<br>
Encoded date : UTC 2023-12-07 02:21:57<br>
Tagged date : UTC 2023-12-07 02:22:19<br>
TIM : 00:00:00:00<br>
TSC : 25<br>
TSZ : 1<br>
<br>
Video<br>
ID : 1<br>
Format : AVC<br>
Format/Info : Advanced Video Codec<br>
Format profile : Main@L5.1<br>
Format settings : CABAC / 4 Ref Frames<br>
Format settings, CABAC : Yes<br>
Format settings, Reference frames : 4 frames<br>
Codec ID : avc1<br>
Codec ID/Info : Advanced Video Coding<br>
Duration : 3 min 54 s<br>
Bit rate : 99.4 Mb/s<br>
Width : 3 840 pixels<br>
Height : 2 160 pixels<br>
Display aspect ratio : 16:9<br>
Frame rate mode : Constant<br>
Frame rate : 25.000 FPS<br>
Color space : YUV<br>
Chroma subsampling : 4:2:0<br>
Bit depth : 8 bits<br>
Scan type : Progressive<br>
Bits/(Pixel*Frame) : 0.479<br>
Stream size : 2.71 GiB (100%)<br>
Language : English<br>
Encoded date : UTC 2023-12-07 02:21:57<br>
Tagged date : UTC 2023-12-07 02:21:57<br>
Color range : Limited<br>
Color primaries : BT.709<br>
Transfer characteristics : BT.709<br>
Matrix coefficients : BT.709<br>
Codec configuration box : avcC<br>
<br>
Audio<br>
ID : 2<br>
Format : AAC LC<br>
Format/Info : Advanced Audio Codec Low Complexity<br>
Codec ID : mp4a-40-2<br>
Duration : 3 min 54 s<br>
Source duration : 3 min 54 s<br>
Bit rate mode : Variable<br>
Bit rate : 317 kb/s<br>
Maximum bit rate : 429 kb/s<br>
Channel(s) : 2 channels<br>
Channel layout : L R<br>
Sampling rate : 48.0 kHz<br>
Frame rate : 46.875 FPS (1024 SPF)<br>
Compression mode : Lossy<br>
Stream size : 8.86 MiB (0%)<br>
Source stream size : 8.86 MiB (0%)<br>
Language : English<br>
Encoded date : UTC 2023-12-07 02:21:57<br>
Tagged date : UTC 2023-12-07 02:21:57<br>
<br>
</span></div>
</div><br>
<div style="text-align: center"><span style="font-family: 'Times New Roman'"><br>
<div class="bbCodeBlock bbCodeVfcHH HiddenContent">
<div class="attribution type">Hidden Content:</div>
<blockquote>You must either reply or click 'Like' to see the hidden information contained here.</blockquote>
</div></span>​</div>
<div class="messageTextEndMarker">&nbsp;</div>
</blockquote>
</article>]]></description>
                <author><![CDATA[mariellisaa]]></author>
                </item>

                
                <item>
                <title><![CDATA[【Requests】[REQ AUD] - Benson Boone - Beautiful Things flac]]></title>
                <link><![CDATA[https://sharemania.us/threads/benson-boone-beautiful-things-flac.236366/]]></link>
                <description><![CDATA[<article>
<blockquote class="messageText SelectQuoteContainer ugc baseHtml">
THANKS
<div class="messageTextEndMarker">&nbsp;</div>
</blockquote>
</article>]]></description>
                <author><![CDATA[zyner]]></author>
                </item>

                </channel></rss>